<svg width="104" height="69" viewBox="0 0 104 69" fill="none" xmlns="http://www.w3.org/2000/svg">
<path d="M4.30078 52.0664C2.78255 52.0664 1.57943 51.8874 0.691406 51.5293V46.4375C1.6224 46.724 2.50326 46.8672 3.33398 46.8672C4.52279 46.8672 5.38932 46.4876 5.93359 45.7285C6.49219 44.9694 6.77148 43.8379 6.77148 42.334V11.5898H12.6152V42.0332C12.6152 44.0957 12.2643 45.8861 11.5625 47.4043C10.875 48.9225 9.89388 50.0755 8.61914 50.8633C7.35872 51.6654 5.91927 52.0664 4.30078 52.0664Z" fill="#F3AA44"/>
<path d="M30.326 34.006C30.326 36.3113 29.7367 38.0967 28.558 39.362C27.3967 40.6273 25.8193 41.26 23.826 41.26C22.5953 41.26 21.4947 40.9827 20.524 40.428C19.5707 39.856 18.8167 39.0327 18.262 37.958C17.7073 36.866 17.43 35.5487 17.43 34.006C17.43 31.7007 18.0107 29.924 19.172 28.676C20.3333 27.428 21.9107 26.804 23.904 26.804C25.1693 26.804 26.2787 27.09 27.232 27.662C28.2027 28.2167 28.9567 29.0313 29.494 30.106C30.0487 31.1633 30.326 32.4633 30.326 34.006ZM19.796 34.006C19.796 35.6527 20.1167 36.9613 20.758 37.932C21.4167 38.8853 22.4567 39.362 23.878 39.362C25.282 39.362 26.3133 38.8853 26.972 37.932C27.6307 36.9613 27.96 35.6527 27.96 34.006C27.96 32.3593 27.6307 31.068 26.972 30.132C26.3133 29.196 25.2733 28.728 23.852 28.728C22.4307 28.728 21.3993 29.196 20.758 30.132C20.1167 31.068 19.796 32.3593 19.796 34.006ZM49.2402 26.804C50.8175 26.804 51.9962 27.2113 52.7762 28.026C53.5562 28.8233 53.9462 30.1233 53.9462 31.926V41H51.6842V32.03C51.6842 29.8287 50.7395 28.728 48.8502 28.728C47.4982 28.728 46.5275 29.118 45.9382 29.898C45.3662 30.678 45.0802 31.8133 45.0802 33.304V41H42.8182V32.03C42.8182 29.8287 41.8649 28.728 39.9582 28.728C38.5542 28.728 37.5835 29.1613 37.0462 30.028C36.5089 30.8947 36.2402 32.1427 36.2402 33.772V41H33.9522V27.064H35.7982L36.1362 28.962H36.2662C36.6995 28.234 37.2802 27.6967 38.0082 27.35C38.7535 26.986 39.5422 26.804 40.3742 26.804C42.5582 26.804 43.9795 27.584 44.6382 29.144H44.7682C45.2362 28.3467 45.8689 27.7573 46.6662 27.376C47.4809 26.9947 48.3389 26.804 49.2402 26.804ZM63.633 26.804C64.829 26.804 65.8517 27.064 66.701 27.584C67.5677 28.104 68.2263 28.8407 68.677 29.794C69.145 30.73 69.379 31.8307 69.379 33.096V34.474H59.837C59.8717 36.0513 60.2703 37.256 61.033 38.088C61.813 38.9027 62.8963 39.31 64.283 39.31C65.167 39.31 65.947 39.232 66.623 39.076C67.3163 38.9027 68.027 38.66 68.755 38.348V40.35C68.0443 40.662 67.3423 40.8873 66.649 41.026C65.9557 41.182 65.1323 41.26 64.179 41.26C62.8617 41.26 61.6917 40.9913 60.669 40.454C59.6637 39.9167 58.875 39.1193 58.303 38.062C57.7483 36.9873 57.471 35.6787 57.471 34.136C57.471 32.6107 57.7223 31.302 58.225 30.21C58.745 29.118 59.4643 28.2773 60.383 27.688C61.319 27.0987 62.4023 26.804 63.633 26.804ZM63.607 28.676C62.515 28.676 61.6483 29.0313 61.007 29.742C60.383 30.4353 60.0103 31.406 59.889 32.654H66.987C66.9697 31.4753 66.6923 30.522 66.155 29.794C65.6177 29.0487 64.7683 28.676 63.607 28.676ZM79.4268 26.804C79.6868 26.804 79.9641 26.8213 80.2588 26.856C80.5708 26.8733 80.8395 26.908 81.0648 26.96L80.7788 29.066C80.5535 29.014 80.3021 28.9707 80.0248 28.936C79.7648 28.9013 79.5135 28.884 79.2708 28.884C78.5601 28.884 77.8928 29.0833 77.2688 29.482C76.6448 29.8633 76.1421 30.4093 75.7608 31.12C75.3968 31.8133 75.2148 32.628 75.2148 33.564V41H72.9268V27.064H74.7988L75.0588 29.612H75.1628C75.6135 28.8493 76.1941 28.1907 76.9048 27.636C77.6155 27.0813 78.4561 26.804 79.4268 26.804Z" fill="white"/>
</svg>
