<svg width="165" height="440" viewBox="0 0 165 440" fill="none" xmlns="http://www.w3.org/2000/svg">
<path d="M117.276 7.23224C117.276 7.23224 118.813 1.45047 121.123 0V7.23224C121.123 7.23224 130.347 5.78597 136.881 13.014L130.732 14.4603C130.732 14.4603 139.764 17.5942 141.686 31.0942L137.838 29.1669L127.461 52.31L120.927 39.7744L107.862 53.7562L110.936 46.0422L105.94 48.4529L109.399 42.1852L94.0249 49.4174L95.1783 45.5629L89.5451 55.4304C89.5451 55.4304 70.1954 34.4736 91.335 12.2951C91.3326 12.2951 100.941 1.6876 117.276 7.23224Z" fill="#2F2E41"/>
<path d="M119.05 58.7227C119.05 58.7227 113.321 81.4844 115.043 84.4792C116.764 87.474 98.4268 103.647 98.4268 103.647L80.6648 100.053L79.5186 74.2966C79.5186 74.2966 95.5622 59.9209 92.1236 49.1392L119.05 58.7227Z" fill="#FFB9B9"/>
<path opacity="0.1" d="M119.05 58.7227C119.05 58.7227 113.321 81.4844 115.043 84.4792C116.764 87.474 98.4268 103.647 98.4268 103.647L80.6648 100.053L79.5186 74.2966C79.5186 74.2966 95.5622 59.9209 92.1236 49.1392L119.05 58.7227Z" fill="black"/>
<path d="M133.948 202.483C133.948 202.483 138.532 232.433 135.094 256.991C131.656 281.55 129.937 299.519 131.656 303.113C133.375 306.707 135.094 306.108 133.948 310.301C132.801 314.494 130.51 312.697 132.801 316.89C135.093 321.083 134.52 328.27 134.52 330.067C134.52 331.863 137.385 370.798 134.52 374.991C131.655 379.184 130.512 378.585 130.512 378.585L127.075 400.149L108.74 397.154L111.604 377.387C111.604 377.387 104.729 373.793 107.596 371.397C110.464 369.002 112.18 369.002 110.461 369.002C108.742 369.002 105.877 368.403 108.17 367.204C110.462 366.006 108.743 333.661 108.743 333.661C108.743 333.661 104.735 274.361 88.6892 276.158C72.6433 277.956 60.0377 312.697 60.0377 312.697L55.4537 328.271C55.4537 328.271 53.7352 357.622 52.589 360.017C51.4428 362.413 52.0159 363.012 52.589 364.207C53.1621 365.402 57.173 362.41 53.1621 367.202C49.1513 371.994 49.1545 373.791 49.1545 373.791L46.576 405.238L27.9492 392.965V374.396C27.9492 374.396 24.5114 368.407 25.6576 363.615C26.8038 358.822 26.8038 336.061 25.6576 331.869C24.5114 327.676 25.0845 326.477 26.2307 324.681C27.3769 322.884 30.2383 324.082 27.95 319.889C25.6616 315.695 23.9423 304.914 27.3769 297.127C30.8115 289.34 49.7228 212.669 57.7437 208.473C65.7646 204.277 133.948 202.483 133.948 202.483Z" fill="#2F2E41"/>
<path d="M108.737 386.972C108.737 386.972 121.915 384.576 122.488 388.17C122.803 391.156 122.803 394.168 122.488 397.154C122.488 397.154 127.072 397.753 126.496 401.946C125.919 406.139 125.35 417.52 125.35 417.52C125.35 417.52 132.511 435.191 128.501 439.384C128.461 439.426 120.589 439.085 116.065 439.085H99.5666C99.5666 439.085 97.2751 430.699 99.5666 429.501C101.858 428.304 107.015 417.519 106.442 415.125C105.869 412.732 106.442 395.359 106.442 395.359L108.973 395.508L108.737 386.972Z" fill="#3F3D56"/>
<path d="M41.7002 397.753L48.5757 403.145C48.5757 403.145 45.7111 413.327 47.4295 415.127C49.148 416.927 52.8727 437.59 49.4334 438.787C45.994 439.985 24.7959 438.188 24.7959 438.188C24.7959 438.188 1.01773 439.087 0.445435 437.889C-0.126858 436.692 -1.27381 429.503 5.60171 427.107C12.4772 424.712 16.4881 425.311 18.7796 418.122C21.0712 410.933 26.2283 400.153 26.2283 400.153L27.3745 386.975C27.3745 386.975 34.25 388.173 35.3962 388.173C36.5424 388.173 42.2717 391.168 41.6986 393.565C41.3501 394.937 41.3506 396.381 41.7002 397.753V397.753Z" fill="#3F3D56"/>
<path d="M109.31 66.2131C96.1777 66.2131 85.5318 55.0837 85.5318 41.3549C85.5318 27.626 96.1777 16.4966 109.31 16.4966C122.442 16.4966 133.088 27.626 133.088 41.3549C133.088 55.0837 122.442 66.2131 109.31 66.2131Z" fill="#FFB9B9"/>
<path d="M93.8399 83.8835L85.245 68.1789C85.245 68.1789 65.1916 67.1113 64.0454 69.5078C62.8992 71.9043 53.159 190.506 53.159 190.506C53.159 190.506 48.575 197.095 51.4405 201.288L54.3052 205.477V213.864C54.3052 213.864 68.6293 225.846 88.1097 223.447C107.59 221.048 132.228 210.27 132.228 210.27L127.07 176.726L127.644 77.8931L116.102 72.0108C116.102 72.0108 103.009 81.487 100.717 84.4818C98.4254 87.4766 93.8399 83.8835 93.8399 83.8835Z" fill="#040227"/>
<path d="M113.894 83.8833L116.473 68.0103L151.71 94.0701L132.233 153.969C132.233 153.969 144.266 176.731 141.973 185.117C139.681 193.503 138.536 206.081 138.536 206.081C138.536 206.081 107.596 214.468 108.169 210.271C108.741 206.075 108.169 187.509 108.169 187.509C108.169 187.509 98.1496 109.938 103.16 98.109C108.17 86.2798 113.894 83.8833 113.894 83.8833Z" fill="#E6E6E6"/>
<path d="M82.381 76.0967L87.8242 65.0149C87.8242 64.668 49.1511 70.2604 47.427 73.7001L52.0134 165.945C52.0134 165.945 51.4403 179.123 48.5756 182.717C45.7109 186.311 46.284 192.3 47.4294 192.899C48.5748 193.498 67.483 199.488 67.483 199.488C67.483 199.488 85.818 166.544 84.0987 127.006C82.3794 87.4691 82.381 76.0967 82.381 76.0967Z" fill="#E6E6E6"/>
<path d="M54.305 74.299L48.2366 72.9482C45.8613 74.3452 43.9731 76.4965 42.8455 79.0903C41.1262 83.28 21.0728 128.208 21.0728 131.203C21.0728 134.197 20.4997 156.36 33.1054 156.36C45.711 156.36 55.4512 100.055 55.4512 100.055L54.305 74.299Z" fill="#E6E6E6"/>
<path d="M140.25 229.438L129.937 245.61L124.207 225.248L128.215 219.258L140.25 229.438Z" fill="#FFB9B9"/>
<path d="M146.553 94.6647L151.709 94.0664L164.315 164.746L142.542 235.427L123.634 220.453L136.812 173.133L132.229 136.594L146.553 94.6647Z" fill="#E6E6E6"/>
<path d="M84.486 34.3415C87.6344 22.3439 97.4804 13.5874 109.147 13.5874C113.215 13.6311 117.212 14.7074 120.794 16.7238C124.376 18.7401 127.436 21.6362 129.71 25.1627L123.827 36.9491L117.96 26.8385L106.228 38.1155L108.989 31.8938L104.5 33.8379L107.606 28.7826L93.8038 34.6155L94.8393 31.5042L88.2828 40.4483C86.7588 38.6016 85.4815 36.5473 84.486 34.3415V34.3415Z" fill="#2F2E41"/>
<path opacity="0.1" d="M58.0298 103.35L42.5914 117.422L50.5811 99.1548L58.0298 103.35Z" fill="black"/>
<path d="M64.6191 101.254C64.6191 101.254 72.0677 77.2941 81.2348 81.4871C90.4019 85.6802 77.7971 110.838 77.7971 110.838L69.7754 116.229L64.6191 101.254Z" fill="#FFB9B9"/>
<path d="M25.0844 131.803L65.1922 98.8584L79.5164 121.022C79.5164 121.022 41.701 162.951 33.1077 154.565C24.5145 146.179 25.0844 131.803 25.0844 131.803Z" fill="#E6E6E6"/>
</svg>
